<svg id="svg" xmlns="http://www.w3.org/2000/svg" xmlns:xlink="http://www.w3.org/1999/xlink" width="400" height="400" viewBox="0, 0, 400,400"><g id="svgg"><path id="path0" d="M137.600 14.267 C 137.600 14.634,135.710 16.250,133.400 17.858 C 131.090 19.466,127.237 22.766,124.839 25.191 C 122.440 27.616,120.136 29.600,119.719 29.600 C 118.787 29.600,111.200 37.425,111.200 38.386 C 111.200 39.394,116.111 45.688,123.938 54.708 C 127.712 59.057,131.880 63.917,133.200 65.508 C 134.520 67.099,136.594 69.446,137.808 70.725 C 140.974 74.060,141.686 73.963,111.069 74.400 C 85.601 74.764,82.976 74.927,82.046 76.200 C 81.484 76.970,80.729 77.600,80.369 77.600 C 79.530 77.600,74.707 82.847,74.106 84.412 C 73.855 85.066,73.328 85.600,72.934 85.600 C 70.358 85.600,70.188 94.327,70.749 197.374 C 71.634 359.717,71.790 371.561,73.086 374.578 C 74.312 377.432,77.205 380.800,78.431 380.800 C 78.854 380.800,79.200 381.340,79.200 382.000 C 79.200 382.719,79.938 383.200,81.040 383.200 C 82.052 383.200,83.330 383.650,83.880 384.200 C 85.181 385.501,248.800 386.111,248.800 384.815 C 248.800 384.367,249.196 384.000,249.680 384.000 C 250.527 384.000,252.125 382.564,263.918 371.200 C 266.886 368.340,271.539 364.085,274.257 361.744 C 276.976 359.403,279.200 357.039,279.200 356.491 C 279.200 355.943,280.604 354.706,282.319 353.742 C 284.035 352.777,287.512 349.741,290.047 346.994 C 294.776 341.869,308.832 328.671,314.100 324.410 C 315.725 323.096,317.648 321.045,318.372 319.853 C 319.097 318.661,321.462 316.497,323.629 315.043 C 330.080 310.714,329.575 320.372,329.588 201.039 C 329.600 93.242,329.457 87.189,326.831 84.000 C 326.288 83.340,325.617 82.162,325.340 81.382 C 325.063 80.602,324.198 79.728,323.418 79.441 C 322.638 79.153,320.768 77.991,319.263 76.859 L 316.526 74.800 254.597 74.400 L 192.668 74.000 190.534 71.533 C 187.347 67.849,182.848 62.404,180.013 58.800 C 178.629 57.040,175.720 53.867,173.548 51.750 C 171.377 49.632,169.584 47.652,169.564 47.350 C 169.453 45.654,146.611 18.453,142.960 15.668 C 140.309 13.646,137.600 12.938,137.600 14.267 M169.271 108.000 C 171.113 110.420,174.281 114.180,176.310 116.355 C 178.340 118.530,180.000 120.600,180.000 120.955 C 180.000 121.310,180.341 121.600,180.759 121.600 C 181.176 121.600,182.432 122.448,183.551 123.484 C 184.669 124.521,187.687 126.489,190.258 127.860 C 194.805 130.283,219.666 146.633,225.061 150.748 C 226.540 151.877,228.309 152.800,228.990 152.800 C 229.671 152.800,230.455 153.389,230.731 154.109 C 231.192 155.311,231.356 155.306,232.745 154.050 C 235.553 151.508,235.473 149.109,232.387 143.351 C 227.684 134.576,216.000 106.669,216.000 104.211 C 216.000 103.388,224.158 103.226,257.400 103.393 L 298.800 103.600 299.003 199.800 L 299.206 296.000 282.203 296.070 C 252.009 296.194,253.021 296.112,247.082 298.922 C 241.423 301.601,235.312 307.996,235.090 311.472 C 235.029 312.422,234.935 314.344,234.880 315.743 C 234.825 317.142,234.515 318.552,234.190 318.876 C 233.341 319.726,233.460 343.019,234.316 343.548 C 234.710 343.792,235.051 346.869,235.074 350.386 L 235.116 356.782 168.158 356.991 L 101.200 357.200 101.392 248.932 C 101.521 176.175,101.314 140.161,100.764 139.132 C 100.252 138.175,100.235 137.600,100.718 137.600 C 101.567 137.600,101.259 131.790,100.331 130.288 C 99.999 129.752,100.098 129.566,100.561 129.852 C 101.099 130.184,101.249 126.191,101.009 117.951 C 100.811 111.130,100.853 105.017,101.103 104.366 C 101.495 103.343,105.935 103.210,133.739 103.391 L 165.921 103.600 169.271 108.000 M165.200 186.850 C 164.320 187.051,161.620 187.614,159.200 188.101 C 149.002 190.154,139.832 199.087,136.160 210.546 C 133.972 217.371,132.971 228.278,134.376 229.971 C 134.928 230.636,135.183 231.691,134.943 232.316 C 131.632 240.945,146.022 260.680,157.200 262.839 C 180.505 267.342,198.572 257.420,201.931 238.275 C 203.025 232.040,186.189 226.303,183.514 232.000 C 182.998 233.100,181.827 235.698,180.911 237.773 C 177.635 245.201,168.430 248.317,161.549 244.327 C 150.673 238.022,150.894 211.331,161.862 206.351 C 170.142 202.591,179.551 206.090,181.186 213.537 C 182.832 221.029,197.643 219.673,200.539 211.765 C 201.348 209.557,201.487 209.460,201.539 211.070 C 201.573 212.099,202.806 215.699,204.280 219.070 C 205.754 222.442,207.760 227.720,208.739 230.800 C 209.717 233.880,211.140 237.480,211.900 238.800 C 212.660 240.120,214.496 244.620,215.979 248.800 C 217.462 252.980,219.754 257.930,221.073 259.800 L 223.471 263.200 230.104 263.200 C 238.882 263.200,238.512 263.591,244.864 247.600 C 246.263 244.080,248.467 238.163,249.763 234.451 C 251.059 230.739,252.769 226.419,253.562 224.851 C 254.356 223.283,255.270 220.740,255.595 219.200 C 255.919 217.660,256.466 216.040,256.809 215.600 C 258.148 213.886,262.393 201.882,262.396 199.800 C 262.398 198.590,262.681 197.600,263.025 197.600 C 264.282 197.600,265.528 192.714,264.775 190.734 C 263.876 188.369,250.592 187.797,247.684 189.999 C 246.268 191.070,243.200 196.885,243.200 198.496 C 243.200 198.893,242.491 200.744,241.623 202.609 C 240.212 205.645,238.586 209.975,232.465 227.000 C 230.022 233.795,230.091 233.810,227.336 225.846 C 221.497 208.968,216.944 196.197,215.839 193.600 C 214.064 189.428,212.018 188.702,202.794 188.969 L 194.800 189.200 194.548 192.261 C 194.398 194.083,194.803 196.096,195.548 197.233 C 197.268 199.858,197.117 200.535,195.200 198.800 C 194.320 198.004,193.600 196.868,193.600 196.276 C 193.600 195.684,193.262 195.200,192.849 195.200 C 192.437 195.200,190.916 194.120,189.471 192.800 C 188.026 191.480,186.544 190.400,186.178 190.400 C 185.812 190.400,183.863 189.649,181.846 188.730 C 178.287 187.108,168.771 186.034,165.200 186.850 " stroke="none" fill="#000000" fill-rule="evenodd"></path></g></svg>